<svg width="240" height="220" viewBox="0 0 240 220" fill="none" xmlns="http://www.w3.org/2000/svg">
<path d="M27.7911 196.8C10.4393 175.99 0 149.214 0 120C0 53.7258 53.7258 0 120 0C186.274 0 240 53.7258 240 120C240 149.214 229.561 175.99 212.209 196.8H27.7911Z" fill="#E8E1ED"/>
<path d="M157.073 201.359C170.48 204.041 180.693 203.651 187.715 200.189C198.247 194.997 202.136 183.23 199.614 172.634C197.933 165.571 194.22 158.337 188.476 150.935L165.21 158.833C170.846 164.544 172.496 168.374 170.16 170.324C166.657 173.249 164.487 165.083 163.857 159.613C163.342 155.148 157.812 150.281 147.267 145.012V154.322L157.073 201.359Z" fill="url(#paint0_linear)"/>
<mask id="mask0" mask-type="alpha" maskUnits="userSpaceOnUse" x="61" y="140" width="99" height="70">
<path d="M96.8143 166.595C84.5294 166.32 75.9632 168.51 71.1157 173.166C63.8445 180.149 55.2337 192.781 66.7996 203.765C74.5102 211.088 85.8915 211.952 100.943 206.355C106.365 209.425 114.317 210.404 124.8 209.293C135.282 208.182 146.155 205.548 157.416 201.392C162.129 188.514 159.002 172.727 148.034 154.033C137.067 135.339 128.16 135.339 121.313 154.033L96.8143 166.595Z" fill="white"/>
</mask>
<g mask="url(#mask0)">
<path d="M96.8143 166.595C84.5294 166.32 75.9632 168.51 71.1157 173.166C63.8445 180.149 55.2337 192.781 66.7996 203.765C74.5102 211.088 85.8915 211.952 100.943 206.355C106.365 209.425 114.317 210.404 124.8 209.293C135.282 208.182 146.155 205.548 157.416 201.392C162.129 188.514 159.002 172.727 148.034 154.033C137.067 135.339 128.16 135.339 121.313 154.033L96.8143 166.595Z" fill="url(#paint1_linear)"/>
<path d="M124.8 204.066C126.278 192.885 124.465 184.668 119.362 179.414C114.258 174.16 103.07 169.717 85.7954 166.085L153.285 154.37C158.241 168.99 160.719 180.943 160.719 190.228C160.719 199.513 159.401 204.905 156.765 206.406L124.8 204.066Z" fill="url(#paint2_linear)"/>
</g>
<path d="M112.724 172.767C128.409 172.767 145.017 167.317 145.017 158.702C145.017 150.086 136.885 139.2 121.2 139.2C105.515 139.2 92.7998 146.184 92.7998 154.8C92.7998 163.416 97.0396 172.767 112.724 172.767Z" fill="url(#paint3_linear)"/>
<path d="M58.2471 134.546C54.5027 131.496 48.3433 122.827 39.7689 108.538C26.9074 87.1052 21.8841 54.9729 26.9706 49.4773C32.0571 43.9816 70.2815 57.7348 85.8219 73.0591C96.1821 83.2753 86.9905 103.771 58.2471 134.546Z" fill="url(#paint4_linear)"/>
<path d="M165.868 87.8644C124.187 88.2945 101.783 79.7323 99.8178 65.9877C96.8696 45.3708 108.964 9.84067 116.563 9.87175C124.162 9.90283 141.116 27.9948 153.165 49.2601C161.041 63.1611 168.342 80.4745 165.868 87.8644Z" fill="url(#paint5_linear)"/>
<mask id="mask1" mask-type="alpha" maskUnits="userSpaceOnUse" x="111" y="16" width="49" height="63">
<path d="M114.438 71.5785C111.468 63.7663 110.589 54.0907 111.802 42.5516C113.621 25.2429 116.853 18.3045 120.2 16.7554C123.546 15.2063 136.157 29.0555 145.335 43.4512C151.455 53.0483 156.078 64.8257 159.206 78.7834L114.438 71.5785Z" fill="white"/>
</mask>
<g mask="url(#mask1)">
<path d="M115.293 72.3301C112.052 64.6263 110.836 54.9873 111.645 43.4129C112.859 26.0513 115.847 19.0043 119.138 17.3394C122.429 15.6744 135.514 29.075 145.19 43.1416C151.64 52.5194 156.672 64.1283 160.285 77.9682L115.293 72.3301Z" fill="url(#paint6_linear)"/>
<path opacity="0.5" d="M131.695 89.178C141.225 84.5297 143.621 69.8341 137.046 56.3543C130.472 42.8745 117.416 35.7151 107.886 40.3634C98.3557 45.0116 95.9596 59.7073 102.534 73.1871C109.109 86.6669 122.164 93.8262 131.695 89.178Z" fill="#FAC6E5"/>
</g>
<mask id="mask2" mask-type="alpha" maskUnits="userSpaceOnUse" x="28" y="55" width="51" height="73">
<path d="M78.3842 83.5296C73.6218 76.6209 66.1288 70.333 55.905 64.6658C40.5693 56.1651 32.9963 54.7854 29.8103 56.6046C26.6243 58.4239 29.9994 77.3676 36.6645 93.1015C41.1078 103.591 48.571 115.067 59.0539 127.532L78.3842 83.5296Z" fill="white"/>
</mask>
<g mask="url(#mask2)">
<path d="M78.5623 84.6613C74.0439 77.5906 66.7749 71.0449 56.7551 65.0245C41.7254 55.9937 34.2052 54.3506 30.9576 56.0575C27.7101 57.7644 30.422 76.8144 36.5339 92.7713C40.6085 103.409 47.6666 115.139 57.7082 127.962L78.5623 84.6613Z" fill="url(#paint7_linear)"/>
<path opacity="0.5" d="M79.6115 114.121C69.8496 118.065 57.3612 109.939 51.7179 95.9713C46.0745 82.0035 49.4132 67.4831 59.1751 63.5391C68.937 59.595 81.4254 67.7208 87.0688 81.6886C92.7121 95.6564 89.3734 110.177 79.6115 114.121Z" fill="#FAC6E5"/>
</g>
<mask id="mask3" mask-type="alpha" maskUnits="userSpaceOnUse" x="51" y="54" width="141" height="118">
<path d="M86.6811 60.6813C115.868 46.8646 142.929 56.7122 159.049 73.7267C175.169 90.7412 189.76 104.481 189.637 106.251C189.554 107.431 187.029 108.909 182.061 110.683C188.579 109.555 191.81 109.38 191.756 110.157C191.71 110.814 187.514 119.555 178.059 129.826C168.603 140.096 159.512 151.052 142.463 158.971C125.414 166.889 116.138 167.778 102.244 169.017C85.6057 170.501 66.3198 171.324 66.3198 171.324C66.3198 171.324 68.7641 169.888 73.6527 167.018C67.5745 169.002 63.8498 169.522 62.4786 168.576C60.4219 167.156 59.4489 152.829 53.3235 124.378C47.198 95.9259 57.494 74.4979 86.6811 60.6813Z" fill="white"/>
</mask>
<g mask="url(#mask3)">
<path d="M86.6811 60.6813C115.868 46.8646 142.929 56.7122 159.049 73.7267C175.169 90.7412 189.76 104.481 189.637 106.251C189.554 107.431 187.029 108.909 182.061 110.683C188.579 109.555 191.81 109.38 191.756 110.157C191.71 110.814 187.514 119.555 178.059 129.826C168.603 140.096 159.512 151.052 142.463 158.971C125.414 166.889 116.138 167.778 102.244 169.017C85.6057 170.501 66.3198 171.324 66.3198 171.324C66.3198 171.324 68.7641 169.888 73.6527 167.018C67.5745 169.002 63.8498 169.522 62.4786 168.576C60.4219 167.156 59.4489 152.829 53.3235 124.378C47.198 95.9259 57.494 74.4979 86.6811 60.6813Z" fill="url(#paint8_linear)"/>
<path d="M147.883 76.3285C161.922 91.2347 164.522 100.471 167.174 101.72C169.827 102.97 170.812 103.039 179.525 103.624C185.425 104.02 191.82 105.485 196.487 110.286C203.89 113.482 207.734 121.265 202.323 129.332C196.221 138.429 179.111 161.138 159.626 175.466C159.276 176.319 158.745 176.991 158.033 177.482C134.902 193.466 109.088 195.957 94.6165 194.945C84.9692 194.271 71.1437 187.406 60.9077 176.696C60.4275 170.767 64.5612 163.385 68.2098 158.703C73.6867 151.676 76.6357 151.882 76.9286 147.694C77.2216 143.505 64.0436 131.851 65.8487 106.037C67.0274 89.1811 83.4295 76.4266 103.948 89.1959C103.758 64.2177 133.844 61.4223 147.883 76.3285Z" fill="url(#paint9_linear)"/>
<path d="M130.861 133.316C138.143 129.706 140.773 123.103 138.679 118.796C136.585 114.49 131.46 115.601 127.562 117.533L120.51 121.029C116.245 123.143 112.607 126.375 114.701 130.681C116.795 134.988 123.579 136.925 130.861 133.316Z" fill="url(#paint10_linear)"/>
<path d="M131.936 122.452C135.601 120.786 136.072 119.609 135.605 118.633C135.138 117.656 132.738 117.784 130.245 118.917C127.752 120.05 126.109 121.76 126.576 122.736C127.043 123.712 128.272 124.117 131.936 122.452Z" fill="url(#paint11_linear)"/>
<path opacity="0.67" d="M132.684 170.488C126.365 170.49 117.988 171.065 107.553 172.216C111.485 163.34 116.064 156.803 121.292 152.605C129.133 146.309 143.313 132.156 154.367 132.154C161.737 132.153 168.55 135.472 174.806 142.113C153.043 161.029 139.002 170.487 132.684 170.488Z" fill="url(#paint12_radial)"/>
</g>
<path d="M108.982 141.161C112.782 145.161 118.27 147.412 125.445 147.914C132.62 148.416 139.141 146.466 145.007 142.064" stroke="url(#paint13_linear)" stroke-width="2" stroke-linecap="round"/>
<path d="M96.9081 125.35C103.649 122.062 101.864 118.402 99.6621 113.888C97.4603 109.373 92.6572 107.185 88.9343 109.001C85.2114 110.817 83.9783 115.949 86.1802 120.463C88.3821 124.978 90.1671 128.638 96.9081 125.35Z" fill="#0079BF"/>
<path d="M96.0788 122.662C98.5608 121.452 99.3828 118.031 97.9149 115.021C96.447 112.011 93.245 110.553 90.763 111.763C88.2811 112.974 87.459 116.395 88.927 119.405C90.3949 122.414 93.5969 123.873 96.0788 122.662Z" fill="#172B4D"/>
<path d="M88.5621 118.533C90.5476 117.565 91.6614 115.763 91.0498 114.509C90.4381 113.255 88.3327 113.024 86.3471 113.992C84.3616 114.961 83.2478 116.762 83.8594 118.016C84.4711 119.27 86.5765 119.502 88.5621 118.533Z" fill="white"/>
<path d="M140.108 106.15C146.849 102.862 145.064 99.2022 142.862 94.6876C140.66 90.1731 135.857 87.9853 132.134 89.8011C128.411 91.6169 127.178 96.7487 129.38 101.263C131.582 105.778 133.367 109.437 140.108 106.15Z" fill="#0079BF"/>
<path d="M139.279 103.462C141.76 102.252 142.583 98.8305 141.115 95.8208C139.647 92.8111 136.445 91.3526 133.963 92.5631C131.481 93.7737 130.659 97.1948 132.127 100.205C133.595 103.214 136.797 104.673 139.279 103.462Z" fill="#172B4D"/>
<path d="M131.762 99.3335C133.747 98.3651 134.861 96.5634 134.249 95.3094C133.638 94.0553 131.532 93.8238 129.547 94.7922C127.561 95.7607 126.447 97.5623 127.059 98.8164C127.671 100.07 129.776 100.302 131.762 99.3335Z" fill="white"/>
<path d="M191.042 154.084C181.785 141.503 171.661 137.027 160.67 140.656C144.182 146.099 132.164 165.521 146.23 172.294C150.387 174.296 154.563 172.849 158.76 167.953C162.094 168.517 164.74 168.517 166.699 167.953C168.658 167.388 170.91 165.985 173.455 163.743L180.126 162.651L184.519 158.221L190.134 157.156L191.042 154.084Z" fill="url(#paint14_linear)"/>
<path opacity="0.8" d="M116.638 185.927C101.39 186.058 93.7656 184.306 93.7656 180.671C93.7656 175.219 114.115 168.459 142.045 168.459C153.625 168.459 160.912 164.978 166.076 174.166C168.169 177.889 165.945 187.051 159.403 201.65L152.903 203.765L116.638 185.927Z" fill="url(#paint15_radial)"/>
<path d="M99.8257 206.033C108.363 213.322 116.641 216.967 124.659 216.967C132.676 216.967 136.839 215.416 137.148 212.314C138.773 212.692 140.447 212.692 142.171 212.314C143.895 211.936 145.427 210.592 146.766 208.282C147.531 208.794 148.834 208.513 150.675 207.438C153.437 205.827 155.097 198.446 151.349 193.647C147.602 188.848 144.878 186.707 135.203 185.676C128.753 184.99 122.23 184.99 115.633 185.676L112.572 189.756L109.022 191.033L106.649 195.989L103.3 198.687L102.588 203.543L99.8257 206.033Z" fill="url(#paint16_linear)"/>
<defs>
<linearGradient id="paint0_linear" x1="178.725" y1="195.836" x2="162.94" y2="152.867" gradientUnits="userSpaceOnUse">
<stop stop-color="#459EB4"/>
<stop offset="1" stop-color="#B1D3DB"/>
</linearGradient>
<linearGradient id="paint1_linear" x1="61.1475" y1="183.69" x2="101.038" y2="152.276" gradientUnits="userSpaceOnUse">
<stop stop-color="#64AEC0"/>
<stop offset="1" stop-color="#60758E"/>
</linearGradient>
<linearGradient id="paint2_linear" x1="120.344" y1="175.22" x2="121.758" y2="193.057" gradientUnits="userSpaceOnUse">
<stop stop-color="#CAE1E0"/>
<stop offset="1" stop-color="#75C0CB"/>
</linearGradient>
<linearGradient id="paint3_linear" x1="96.1544" y1="161.423" x2="143.077" y2="148.782" gradientUnits="userSpaceOnUse">
<stop stop-color="#6C7594"/>
<stop offset="1" stop-color="#0079BF"/>
</linearGradient>
<linearGradient id="paint4_linear" x1="55.7305" y1="46.5072" x2="61.8691" y2="134.293" gradientUnits="userSpaceOnUse">
<stop stop-color="#BBEDF3"/>
<stop offset="1" stop-color="#5B7C9A"/>
</linearGradient>
<linearGradient id="paint5_linear" x1="131.777" y1="86.3084" x2="137.022" y2="11.2916" gradientUnits="userSpaceOnUse">
<stop stop-color="#5D7D99"/>
<stop offset="1" stop-color="#C5F0F5"/>
</linearGradient>
<linearGradient id="paint6_linear" x1="123.76" y1="67.5105" x2="125.51" y2="17.3973" gradientUnits="userSpaceOnUse">
<stop stop-color="#FCDEF0"/>
<stop offset="1" stop-color="#F6F7F9"/>
</linearGradient>
<linearGradient id="paint7_linear" x1="70.7604" y1="90.319" x2="26.9717" y2="61.8823" gradientUnits="userSpaceOnUse">
<stop stop-color="#FCDEF0"/>
<stop offset="1" stop-color="#F6F7F9"/>
</linearGradient>
<linearGradient id="paint8_linear" x1="125.467" y1="54.76" x2="117.607" y2="167.173" gradientUnits="userSpaceOnUse">
<stop stop-color="#B2E2E9"/>
<stop offset="1" stop-color="#425C7F"/>
</linearGradient>
<linearGradient id="paint9_linear" x1="151.529" y1="189.756" x2="135.75" y2="103.151" gradientUnits="userSpaceOnUse">
<stop stop-color="#B1E7EF"/>
<stop offset="1" stop-color="white"/>
</linearGradient>
<linearGradient id="paint10_linear" x1="131.34" y1="118.093" x2="130.361" y2="132.286" gradientUnits="userSpaceOnUse">
<stop stop-color="#635B94"/>
<stop offset="1" stop-color="#685D91"/>
</linearGradient>
<linearGradient id="paint11_linear" x1="126.597" y1="122.78" x2="135.585" y2="118.589" gradientUnits="userSpaceOnUse">
<stop stop-color="#A4AECB"/>
<stop offset="1" stop-color="white"/>
</linearGradient>
<radialGradient id="paint12_radial" cx="0" cy="0" r="1" gradientUnits="userSpaceOnUse" gradientTransform="translate(156.127 -127.111) rotate(-106.725) scale(22.5048 23.847)">
<stop stop-color="#9DABC1" stop-opacity="0.515427"/>
<stop offset="1" stop-color="#98A3B4" stop-opacity="0"/>
</radialGradient>
<linearGradient id="paint13_linear" x1="144.756" y1="145.656" x2="108.844" y2="143.144" gradientUnits="userSpaceOnUse">
<stop stop-color="#B2C0D4"/>
<stop offset="1" stop-color="#42526E"/>
</linearGradient>
<linearGradient id="paint14_linear" x1="167.478" y1="154.137" x2="164.603" y2="165.716" gradientUnits="userSpaceOnUse">
<stop stop-color="white"/>
<stop offset="1" stop-color="#D6F4F8"/>
</linearGradient>
<radialGradient id="paint15_radial" cx="0" cy="0" r="1" gradientUnits="userSpaceOnUse" gradientTransform="translate(-156.461 233.071) rotate(79.2421) scale(27.1856 14.6543)">
<stop stop-color="#5E6C84"/>
<stop offset="1" stop-color="#5E6C84" stop-opacity="0"/>
</radialGradient>
<linearGradient id="paint16_linear" x1="126.677" y1="216.967" x2="126.677" y2="185.161" gradientUnits="userSpaceOnUse">
<stop stop-color="#CDF2F6"/>
<stop offset="1" stop-color="white"/>
</linearGradient>
</defs>
</svg>
